<?xml version="1.0" encoding="utf-8"?>
<!-- Generator: Adobe Illustrator 15.1.0, SVG Export Plug-In . SVG Version: 6.00 Build 0)  -->
<!DOCTYPE svg PUBLIC "-//W3C//DTD SVG 1.1//EN" "http://www.w3.org/Graphics/SVG/1.1/DTD/svg11.dtd">
<svg version="1.1" id="Layer_1" xmlns="http://www.w3.org/2000/svg" xmlns:xlink="http://www.w3.org/1999/xlink" x="0px" y="0px"
	 width="231.501px" height="48.227px" viewBox="0 0 231.501 48.227" enable-background="new 0 0 231.501 48.227"
	 xml:space="preserve">
<g>
	
		<rect x="32.276" y="24.802" transform="matrix(-0.1779 -0.9841 0.9841 -0.1779 26.1482 71.8663)" fill="#575756" width="21.636" height="0.417"/>
	
		<rect x="31.348" y="23.312" transform="matrix(0.0893 -0.996 0.996 0.0893 21.9226 71.4301)" fill="#EE7D00" width="37.345" height="0.83"/>
	
		<rect x="33.596" y="27.367" transform="matrix(-0.0445 -0.999 0.999 -0.0445 13.5766 68.1358)" fill="#575756" width="11.555" height="0.416"/>
	
		<rect x="41.179" y="29.549" transform="matrix(-0.1747 -0.9846 0.9846 -0.1747 38.047 91.4038)" fill="#13A438" width="32.304" height="0.414"/>
	<polygon fill="#E73C4E" points="69.945,6.332 63.275,36.858 61.646,36.506 68.316,5.979 	"/>
	<rect x="73.285" y="0" fill="#575756" width="0.416" height="48.227"/>
	<polygon fill="#009EE2" points="77.746,21.457 82.363,41.721 81.55,41.903 76.935,21.639 	"/>
	
		<rect x="74.588" y="20.314" transform="matrix(0.2809 -0.9597 0.9597 0.2809 41.8235 96.8618)" fill="#575756" width="21.918" height="0.417"/>
	<rect x="87.888" y="19.494" fill="#4B2682" width="2.502" height="17.701"/>
	
		<rect x="89.472" y="25.956" transform="matrix(0.357 -0.9341 0.9341 0.357 36.0925 104.7619)" fill="#575756" width="9.339" height="0.418"/>
	<path fill="#575756" d="M214.253,34.485c-0.402,0-0.74-0.218-1.08-0.62V31.64c0.314-0.354,0.629-0.636,1.072-0.636
		c0.598,0,1.039,0.547,1.039,1.748C215.285,33.985,214.849,34.485,214.253,34.485 M214.328,34.944c0.836,0,1.488-0.66,1.488-2.2
		c0-1.538-0.635-2.198-1.465-2.198c-0.541,0-0.902,0.305-1.178,0.636v-2.271h-0.523v5.962h0.523v-0.532
		C213.48,34.701,213.833,34.944,214.328,34.944 M209.443,32.398c0.08-0.967,0.547-1.401,1.055-1.401c0.631,0,0.92,0.596,0.961,1.401
		H209.443z M210.492,34.959c0.66,0,1.15-0.402,1.441-1.055l-0.395-0.218c-0.234,0.507-0.5,0.821-1.016,0.821
		c-0.652,0-1.063-0.596-1.088-1.684h2.547v-0.121c0-1.385-0.541-2.158-1.477-2.158c-0.846,0-1.594,0.7-1.594,2.198
		C208.912,34.202,209.587,34.959,210.492,34.959 M206.728,34.871h0.523v-2.876c0.258-0.573,0.734-0.96,1.305-0.96h0.137l0.049-0.49
		h-0.088c-0.676,0-1.127,0.387-1.387,0.846h-0.016v-0.758h-0.523V34.871z M203.757,34.59c0.041,0,0.088,0.007,0.129,0.016
		l0.717,0.088c0.742,0.098,0.967,0.299,0.967,0.678c0,0.427-0.5,0.708-1.223,0.708c-0.904,0-1.193-0.257-1.193-0.701
		C203.154,35.057,203.355,34.758,203.757,34.59 M204.337,33.172c-0.58,0-0.934-0.429-0.934-1.088c0-0.67,0.338-1.112,0.926-1.112
		c0.604,0,0.928,0.427,0.928,1.112C205.257,32.743,204.917,33.172,204.337,33.172 M205.369,30.972
		c-0.258-0.274-0.611-0.427-1.039-0.427c-0.828,0-1.441,0.619-1.441,1.53c0,0.523,0.209,0.967,0.555,1.232
		c-0.258,0.146-0.443,0.396-0.443,0.637s0.129,0.403,0.355,0.524c-0.436,0.201-0.701,0.539-0.701,0.973
		c0,0.646,0.467,1.041,1.643,1.041c1.008,0,1.773-0.428,1.773-1.177c0-0.628-0.395-0.935-1.387-1.063L204,34.155
		c-0.426-0.057-0.523-0.137-0.523-0.307c0-0.153,0.113-0.273,0.273-0.371c0.17,0.081,0.371,0.113,0.588,0.113
		c0.814,0,1.418-0.572,1.418-1.515c0-0.331-0.072-0.62-0.209-0.846c0.219-0.089,0.443-0.129,0.652-0.129v-0.516
		C205.925,30.633,205.587,30.778,205.369,30.972 M200.441,34.492c-0.402,0-0.637-0.209-0.637-0.668c0-0.541,0.426-1.04,1.869-1.346
		v1.401C201.351,34.242,200.908,34.492,200.441,34.492 M200.294,34.928c0.549,0,1.008-0.227,1.379-0.613
		c0,0.242,0.039,0.387,0.088,0.557h0.531c-0.072-0.218-0.104-0.532-0.104-1.047v-2.039c0-0.789-0.355-1.24-1.152-1.24
		c-0.67,0-1.201,0.299-1.635,0.758l0.313,0.313c0.332-0.331,0.742-0.612,1.281-0.612c0.451,0,0.678,0.258,0.678,0.781v0.29
		c-1.717,0.354-2.385,0.983-2.385,1.805C199.289,34.526,199.652,34.928,200.294,34.928 M195.244,34.871h3.553v-0.5h-2.918
		l2.918-5.051v-0.411h-3.361v0.507h2.725l-2.916,5.036V34.871z M190.281,34.871h0.523v-3.207c0.338-0.338,0.789-0.66,1.225-0.66
		c0.484,0,0.66,0.266,0.66,0.805v3.063h0.523v-3.15c0-0.773-0.348-1.176-1.047-1.176c-0.547,0-1.063,0.362-1.361,0.685v-0.597
		h-0.523V34.871z M188.876,34.871h0.523v-4.238h-0.523V34.871z M188.869,29.707h0.539v-0.621h-0.539V29.707z M183.615,34.871h0.525
		v-3.207c0.336-0.338,0.789-0.66,1.223-0.66c0.484,0,0.66,0.266,0.66,0.805v3.063h0.523v-3.15c0-0.773-0.346-1.176-1.047-1.176
		c-0.547,0-1.063,0.362-1.359,0.685v-2.32h-0.525V34.871z M181.585,34.959c0.719,0,1.201-0.443,1.443-1.232l-0.467-0.137
		c-0.17,0.612-0.459,0.91-0.951,0.91c-0.66,0-1.063-0.685-1.063-1.757c0-1.208,0.498-1.739,1.063-1.739
		c0.508,0,0.74,0.371,0.902,0.902l0.484-0.137c-0.203-0.652-0.557-1.225-1.371-1.225c-0.879,0-1.611,0.7-1.611,2.207
		C180.015,34.17,180.701,34.959,181.585,34.959 M177.828,34.871h0.525v-2.876c0.256-0.573,0.73-0.96,1.303-0.96h0.139l0.047-0.49
		h-0.088c-0.678,0-1.129,0.387-1.385,0.846h-0.016v-0.758h-0.525V34.871z M175.22,34.492c-0.404,0-0.637-0.209-0.637-0.668
		c0-0.541,0.428-1.04,1.869-1.346v1.401C176.13,34.242,175.687,34.492,175.22,34.492 M175.074,34.928
		c0.549,0,1.008-0.227,1.379-0.613c0,0.242,0.039,0.387,0.088,0.557h0.531c-0.072-0.218-0.104-0.532-0.104-1.047v-2.039
		c0-0.789-0.355-1.24-1.152-1.24c-0.67,0-1.201,0.299-1.637,0.758l0.316,0.313c0.328-0.331,0.74-0.612,1.279-0.612
		c0.451,0,0.678,0.258,0.678,0.781v0.29c-1.715,0.354-2.387,0.983-2.387,1.805C174.066,34.526,174.429,34.928,175.074,34.928
		 M171.083,32.398c0.08-0.967,0.549-1.401,1.055-1.401c0.629,0,0.922,0.596,0.961,1.401H171.083z M172.13,34.959
		c0.662,0,1.152-0.402,1.443-1.055l-0.395-0.218c-0.234,0.507-0.5,0.821-1.016,0.821c-0.652,0-1.063-0.596-1.086-1.684h2.543v-0.121
		c0-1.385-0.539-2.158-1.473-2.158c-0.846,0-1.596,0.7-1.596,2.198C170.552,34.202,171.23,34.959,172.13,34.959 M168.697,34.951
		c0.797,0,1.42-0.451,1.42-1.152c0-1.53-2.209-1.063-2.209-2.183c0-0.347,0.242-0.628,0.766-0.628c0.459,0,0.764,0.233,0.973,0.596
		l0.387-0.258c-0.279-0.477-0.715-0.781-1.359-0.781c-0.766,0-1.281,0.467-1.281,1.095c0,1.483,2.223,1.063,2.223,2.176
		c0,0.419-0.32,0.692-0.91,0.692c-0.467,0-0.869-0.241-1.145-0.692l-0.387,0.25C167.496,34.621,167.988,34.951,168.697,34.951
		 M164.255,32.398c0.078-0.967,0.547-1.401,1.055-1.401c0.627,0,0.918,0.596,0.957,1.401H164.255z M165.302,34.959
		c0.66,0,1.152-0.402,1.441-1.055l-0.393-0.218c-0.236,0.507-0.502,0.821-1.018,0.821c-0.65,0-1.063-0.596-1.088-1.684h2.547v-0.121
		c0-1.385-0.539-2.158-1.475-2.158c-0.846,0-1.596,0.7-1.596,2.198C163.722,34.202,164.4,34.959,165.302,34.959 M160.386,31.762
		v-2.346h1.066c0.854,0,1.271,0.314,1.271,1.136c0,0.887-0.426,1.21-1.264,1.21H160.386z M159.847,34.871h0.539v-2.635h1.17
		l1.209,2.635h0.555l-1.232-2.715c0.619-0.153,1.178-0.613,1.178-1.611c0-1.113-0.646-1.636-1.775-1.636h-1.643V34.871z
		 M156.859,34.871h0.525v-5.962h-0.525V34.871z M154.234,34.492c-0.402,0-0.635-0.209-0.635-0.668c0-0.541,0.426-1.04,1.869-1.346
		v1.401C155.146,34.242,154.703,34.492,154.234,34.492 M154.089,34.928c0.547,0,1.008-0.227,1.379-0.613
		c0,0.242,0.039,0.387,0.088,0.557h0.531c-0.072-0.218-0.104-0.532-0.104-1.047v-2.039c0-0.789-0.355-1.24-1.152-1.24
		c-0.67,0-1.201,0.299-1.635,0.758l0.313,0.313c0.332-0.331,0.742-0.612,1.281-0.612c0.451,0,0.678,0.258,0.678,0.781v0.29
		c-1.717,0.354-2.385,0.983-2.385,1.805C153.083,34.526,153.445,34.928,154.089,34.928 M151.917,34.871h0.525v-4.238h-0.525V34.871z
		 M151.91,29.707h0.539v-0.621h-0.539V29.707z M149.867,34.959c0.715,0,1.199-0.443,1.441-1.232l-0.467-0.137
		c-0.168,0.612-0.459,0.91-0.951,0.91c-0.66,0-1.063-0.685-1.063-1.757c0-1.208,0.498-1.739,1.063-1.739
		c0.508,0,0.74,0.371,0.902,0.902l0.482-0.137c-0.199-0.652-0.555-1.225-1.369-1.225c-0.879,0-1.611,0.7-1.611,2.207
		C148.294,34.17,148.98,34.959,149.867,34.959 M146.164,34.508c-0.773,0-1.104-0.805-1.104-1.765c0-1.015,0.371-1.739,1.104-1.739
		c0.758,0,1.096,0.797,1.096,1.739C147.259,33.783,146.888,34.508,146.164,34.508 M146.164,34.959c0.934,0,1.627-0.789,1.627-2.207
		c0-1.434-0.693-2.207-1.627-2.207c-0.941,0-1.635,0.773-1.635,2.207C144.529,34.17,145.23,34.959,146.164,34.959 M142.265,34.967
		c1.055,0,1.74-0.676,1.74-1.538c0-1.071-0.83-1.458-1.596-1.829c-0.645-0.322-1.248-0.636-1.248-1.377
		c0-0.549,0.408-0.935,1.006-0.935c0.668,0,1.049,0.467,1.258,0.966l0.473-0.217c-0.273-0.662-0.795-1.241-1.723-1.241
		c-0.887,0-1.555,0.597-1.555,1.435c0,1.079,0.822,1.458,1.578,1.828c0.654,0.322,1.266,0.629,1.266,1.379
		c0,0.62-0.459,1.039-1.199,1.039c-0.711,0-1.16-0.451-1.443-1.12l-0.475,0.218C140.703,34.437,141.314,34.967,142.265,34.967
		 M136.648,34.871h0.525v-2.876c0.258-0.573,0.732-0.96,1.305-0.96h0.137l0.049-0.49h-0.09c-0.676,0-1.125,0.387-1.385,0.846h-0.016
		v-0.758h-0.525V34.871z M134.343,34.508c-0.771,0-1.1-0.805-1.1-1.765c0-1.015,0.369-1.739,1.1-1.739
		c0.758,0,1.096,0.797,1.096,1.739C135.439,33.783,135.07,34.508,134.343,34.508 M134.343,34.959c0.936,0,1.629-0.789,1.629-2.207
		c0-1.434-0.693-2.207-1.629-2.207c-0.939,0-1.631,0.773-1.631,2.207C132.712,34.17,133.412,34.959,134.343,34.959 M131.195,34.871
		h0.523v-3.795h0.799v-0.443h-0.799v-0.709c0-0.418,0.252-0.563,0.605-0.563c0.016,0,0.232,0.007,0.232,0.007v-0.458
		c0,0-0.209-0.009-0.258-0.009c-0.699,0-1.104,0.322-1.104,1.023v0.709h-0.627v0.443h0.627V34.871z M126.289,32.398
		c0.08-0.967,0.549-1.401,1.057-1.401c0.627,0,0.918,0.596,0.959,1.401H126.289z M127.337,34.959c0.66,0,1.15-0.402,1.441-1.055
		l-0.395-0.218c-0.234,0.507-0.5,0.821-1.016,0.821c-0.652,0-1.063-0.596-1.088-1.684h2.545v-0.121c0-1.385-0.537-2.158-1.473-2.158
		c-0.846,0-1.596,0.7-1.596,2.198C125.757,34.202,126.433,34.959,127.337,34.959 M125.042,34.928c0.168,0,0.354-0.025,0.459-0.057
		v-0.443c-0.09,0.032-0.234,0.057-0.371,0.057c-0.459,0-0.572-0.209-0.572-0.646v-2.763h0.943v-0.443h-0.943v-1.53h-0.523v1.53
		h-0.629v0.443h0.629v2.868C124.035,34.662,124.332,34.928,125.042,34.928 M121.023,34.959c0.547,0,1.014-0.33,1.361-0.692v0.604
		h0.523v-4.238h-0.523v3.198c-0.387,0.396-0.781,0.669-1.217,0.669c-0.49,0-0.676-0.266-0.676-0.806v-3.062h-0.525v3.15
		C119.966,34.557,120.322,34.959,121.023,34.959 M118.97,34.928c0.17,0,0.355-0.025,0.459-0.057v-0.443
		c-0.088,0.032-0.232,0.057-0.369,0.057c-0.459,0-0.572-0.209-0.572-0.646v-2.763h0.941v-0.443h-0.941v-1.53h-0.525v1.53h-0.627
		v0.443h0.627v2.868C117.962,34.662,118.261,34.928,118.97,34.928 M116.302,34.871h0.523v-4.238h-0.523V34.871z M116.294,29.707
		h0.539v-0.621h-0.539V29.707z M115.265,34.928c0.17,0,0.355-0.025,0.459-0.057v-0.443c-0.088,0.032-0.232,0.057-0.369,0.057
		c-0.459,0-0.572-0.209-0.572-0.646v-2.763h0.941v-0.443h-0.941v-1.53h-0.523v1.53h-0.627v0.443h0.627v2.868
		C114.259,34.662,114.556,34.928,115.265,34.928 M111.916,34.951c0.797,0,1.418-0.451,1.418-1.152c0-1.53-2.207-1.063-2.207-2.183
		c0-0.347,0.242-0.628,0.764-0.628c0.459,0,0.766,0.233,0.975,0.596l0.389-0.258c-0.283-0.477-0.717-0.781-1.363-0.781
		c-0.764,0-1.279,0.467-1.279,1.095c0,1.483,2.223,1.063,2.223,2.176c0,0.419-0.322,0.692-0.91,0.692
		c-0.467,0-0.871-0.241-1.143-0.692l-0.389,0.25C110.714,34.621,111.205,34.951,111.916,34.951 M106.962,34.871h0.523v-3.207
		c0.338-0.338,0.791-0.66,1.225-0.66c0.484,0,0.66,0.266,0.66,0.805v3.063h0.523v-3.15c0-0.773-0.346-1.176-1.047-1.176
		c-0.547,0-1.063,0.362-1.361,0.685v-0.597h-0.523V34.871z M105.445,34.871h0.547v-5.962h-0.547V34.871z"/>
	<path fill="#575756" d="M228.996,25.291c0.547,0,1.016-0.33,1.361-0.692v0.604h0.523v-4.238h-0.523v3.199
		c-0.387,0.395-0.781,0.669-1.217,0.669c-0.49,0-0.676-0.267-0.676-0.807v-3.062h-0.523v3.15
		C227.941,24.889,228.296,25.291,228.996,25.291 M225.71,24.817c-0.402,0-0.74-0.218-1.078-0.621v-2.223
		c0.313-0.355,0.629-0.637,1.07-0.637c0.598,0,1.039,0.548,1.039,1.748C226.742,24.317,226.306,24.817,225.71,24.817
		 M225.783,25.276c0.838,0,1.49-0.66,1.49-2.199s-0.637-2.199-1.465-2.199c-0.539,0-0.902,0.307-1.176,0.637v-2.272h-0.525v5.962
		h0.525v-0.531C224.937,25.033,225.292,25.276,225.783,25.276 M220.9,22.729c0.08-0.965,0.549-1.401,1.057-1.401
		c0.627,0,0.918,0.597,0.959,1.401H220.9z M221.949,25.291c0.66,0,1.15-0.402,1.441-1.056l-0.395-0.216
		c-0.234,0.506-0.5,0.821-1.016,0.821c-0.652,0-1.063-0.597-1.088-1.685h2.547v-0.12c0-1.386-0.539-2.159-1.475-2.159
		c-0.846,0-1.596,0.701-1.596,2.199C220.369,24.534,221.046,25.291,221.949,25.291 M218.185,25.203h0.525v-2.877
		c0.256-0.571,0.73-0.958,1.305-0.958h0.137l0.047-0.491h-0.088c-0.678,0-1.127,0.387-1.387,0.846h-0.014v-0.758h-0.525V25.203z
		 M215.214,24.92c0.041,0,0.09,0.01,0.131,0.017l0.715,0.089c0.742,0.098,0.969,0.298,0.969,0.677c0,0.428-0.5,0.71-1.225,0.71
		c-0.904,0-1.193-0.258-1.193-0.701C214.611,25.389,214.812,25.09,215.214,24.92 M215.794,23.503c-0.58,0-0.934-0.427-0.934-1.088
		c0-0.669,0.338-1.11,0.926-1.11c0.604,0,0.926,0.426,0.926,1.11C216.712,23.076,216.376,23.503,215.794,23.503 M216.826,21.305
		c-0.258-0.275-0.611-0.428-1.039-0.428c-0.83,0-1.441,0.62-1.441,1.53c0,0.524,0.209,0.967,0.555,1.232
		c-0.256,0.146-0.443,0.396-0.443,0.637c0,0.242,0.131,0.403,0.355,0.523c-0.436,0.202-0.701,0.54-0.701,0.976
		c0,0.645,0.467,1.039,1.643,1.039c1.01,0,1.773-0.428,1.773-1.177c0-0.629-0.395-0.935-1.387-1.063l-0.684-0.089
		c-0.426-0.056-0.523-0.136-0.523-0.306c0-0.153,0.113-0.274,0.273-0.37c0.17,0.081,0.371,0.112,0.588,0.112
		c0.814,0,1.42-0.572,1.42-1.515c0-0.33-0.074-0.62-0.211-0.845c0.219-0.09,0.443-0.131,0.652-0.131v-0.516
		C217.382,20.965,217.044,21.111,216.826,21.305 M211.898,24.824c-0.402,0-0.637-0.209-0.637-0.668c0-0.541,0.428-1.041,1.867-1.346
		v1.401C212.806,24.574,212.365,24.824,211.898,24.824 M211.751,25.26c0.549,0,1.01-0.227,1.377-0.613
		c0,0.242,0.041,0.387,0.092,0.557h0.531c-0.074-0.218-0.107-0.531-0.107-1.047v-2.039c0-0.79-0.354-1.24-1.15-1.24
		c-0.668,0-1.201,0.298-1.635,0.757l0.313,0.314c0.33-0.331,0.742-0.612,1.283-0.612c0.449,0,0.674,0.258,0.674,0.781v0.29
		c-1.715,0.354-2.385,0.983-2.385,1.805C210.744,24.857,211.109,25.26,211.751,25.26 M206.699,25.203h3.555v-0.5h-2.916l2.916-5.051
		v-0.411h-3.359v0.507h2.723l-2.918,5.035V25.203z M202.751,25.291c0.549,0,1.016-0.33,1.363-0.692v0.604h0.521v-4.238h-0.521v3.199
		c-0.387,0.395-0.781,0.669-1.217,0.669c-0.492,0-0.678-0.267-0.678-0.807v-3.062h-0.523v3.15
		C201.697,24.889,202.052,25.291,202.751,25.291 M197.685,24.824c-0.402,0-0.637-0.209-0.637-0.668c0-0.541,0.428-1.041,1.869-1.346
		v1.401C198.595,24.574,198.152,24.824,197.685,24.824 M197.541,25.26c0.547,0,1.006-0.227,1.377-0.613
		c0,0.242,0.041,0.387,0.09,0.557h0.531c-0.072-0.218-0.105-0.531-0.105-1.047v-2.039c0-0.79-0.354-1.24-1.152-1.24
		c-0.668,0-1.201,0.298-1.635,0.757l0.314,0.314c0.33-0.331,0.74-0.612,1.281-0.612c0.451,0,0.676,0.258,0.676,0.781v0.29
		c-1.715,0.354-2.385,0.983-2.385,1.805C196.533,24.857,196.896,25.26,197.541,25.26 M195.085,26.815
		c0.572,0,0.807-0.273,0.807-0.895v-4.955h-0.523v4.963c0,0.314-0.113,0.451-0.34,0.451c-0.063,0-0.16-0.008-0.209-0.016v0.436
		C194.861,26.807,195.029,26.815,195.085,26.815 M195.359,20.038h0.541v-0.62h-0.541V20.038z M191.562,25.203h0.521v-3.207
		c0.34-0.338,0.791-0.66,1.227-0.66c0.482,0,0.66,0.266,0.66,0.805v3.063h0.523v-3.15c0-0.774-0.346-1.176-1.047-1.176
		c-0.549,0-1.064,0.362-1.363,0.686v-0.598h-0.521V25.203z M188.953,24.824c-0.402,0-0.637-0.209-0.637-0.668
		c0-0.541,0.428-1.041,1.869-1.346v1.401C189.863,24.574,189.419,24.824,188.953,24.824 M188.806,25.26
		c0.549,0,1.008-0.227,1.379-0.613c0,0.242,0.041,0.387,0.088,0.557h0.533c-0.072-0.218-0.105-0.531-0.105-1.047v-2.039
		c0-0.79-0.354-1.24-1.152-1.24c-0.668,0-1.201,0.298-1.635,0.757l0.313,0.314c0.33-0.331,0.742-0.612,1.281-0.612
		c0.453,0,0.678,0.258,0.678,0.781v0.29c-1.715,0.354-2.385,0.983-2.385,1.805C187.8,24.857,188.164,25.26,188.806,25.26
		 M185.708,25.228h0.539l1.297-4.263h-0.49l-0.732,2.521c-0.113,0.379-0.195,0.67-0.314,1.145h-0.018
		c-0.129-0.482-0.217-0.773-0.322-1.145l-0.732-2.521h-0.523L185.708,25.228z M183.367,25.203h0.523v-4.238h-0.523V25.203z
		 M183.357,20.038h0.541v-0.62h-0.541V20.038z M179.912,25.203h2.844V24.76h-2.223l2.135-3.448v-0.347h-2.58v0.443h1.959
		l-2.135,3.44V25.203z M181.152,20.514h0.379l0.887-1.272h-0.33l-0.732,0.766l-0.742-0.766h-0.346L181.152,20.514z M177.539,24.824
		c-0.402,0-0.635-0.209-0.635-0.668c0-0.541,0.426-1.041,1.867-1.346v1.401C178.451,24.574,178.005,24.824,177.539,24.824
		 M177.394,25.26c0.547,0,1.006-0.227,1.377-0.613c0,0.242,0.041,0.387,0.09,0.557h0.531c-0.072-0.218-0.104-0.531-0.104-1.047
		v-2.039c0-0.79-0.355-1.24-1.154-1.24c-0.668,0-1.199,0.298-1.635,0.757l0.314,0.314c0.33-0.331,0.74-0.612,1.281-0.612
		c0.451,0,0.676,0.258,0.676,0.781v0.29c-1.715,0.354-2.385,0.983-2.385,1.805C176.386,24.857,176.75,25.26,177.394,25.26
		 M174.113,25.203h0.523v-2.877c0.258-0.571,0.732-0.958,1.305-0.958h0.137l0.049-0.491h-0.088c-0.678,0-1.129,0.387-1.387,0.846
		h-0.016v-0.758h-0.523V25.203z M173.097,25.26c0.168,0,0.354-0.024,0.459-0.057V24.76c-0.088,0.032-0.234,0.057-0.371,0.057
		c-0.459,0-0.572-0.21-0.572-0.645v-2.764h0.943v-0.443h-0.943v-1.53h-0.523v1.53h-0.629v0.443h0.629v2.868
		C172.089,24.993,172.388,25.26,173.097,25.26 M169.746,25.283c0.799,0,1.418-0.45,1.418-1.151c0-1.531-2.207-1.063-2.207-2.184
		c0-0.347,0.24-0.629,0.766-0.629c0.459,0,0.766,0.233,0.975,0.597l0.387-0.258c-0.283-0.475-0.717-0.781-1.361-0.781
		c-0.766,0-1.281,0.467-1.281,1.096c0,1.481,2.225,1.063,2.225,2.176c0,0.418-0.324,0.692-0.912,0.692
		c-0.467,0-0.869-0.242-1.143-0.692l-0.387,0.248C168.546,24.953,169.039,25.283,169.746,25.283 M167.173,25.203h0.525v-4.238
		h-0.525V25.203z M167.166,20.038h0.539v-0.62h-0.539V20.038z M163.082,24.824c-0.402,0-0.635-0.209-0.635-0.668
		c0-0.541,0.426-1.041,1.867-1.346v1.401C163.994,24.574,163.548,24.824,163.082,24.824 M162.937,25.26
		c0.547,0,1.006-0.227,1.377-0.613c0,0.242,0.041,0.387,0.088,0.557h0.533c-0.074-0.218-0.104-0.531-0.104-1.047v-2.039
		c0-0.79-0.357-1.24-1.152-1.24c-0.67,0-1.201,0.298-1.637,0.757l0.314,0.314c0.33-0.331,0.74-0.612,1.281-0.612
		c0.451,0,0.676,0.258,0.676,0.781v0.29c-1.715,0.354-2.385,0.983-2.385,1.805C161.929,24.857,162.292,25.26,162.937,25.26
		 M158.388,25.203h0.523v-3.207c0.338-0.338,0.789-0.66,1.225-0.66c0.482,0,0.66,0.266,0.66,0.805v3.063h0.523v-3.15
		c0-0.774-0.346-1.176-1.049-1.176c-0.547,0-1.061,0.362-1.359,0.686v-0.598h-0.523V25.203z M155.179,22.729
		c0.082-0.965,0.549-1.401,1.057-1.401c0.629,0,0.918,0.597,0.959,1.401H155.179z M156.226,25.291c0.662,0,1.154-0.402,1.443-1.056
		l-0.395-0.216c-0.234,0.506-0.5,0.821-1.016,0.821c-0.652,0-1.064-0.597-1.088-1.685h2.547v-0.12c0-1.386-0.541-2.159-1.475-2.159
		c-0.846,0-1.596,0.701-1.596,2.199C154.648,24.534,155.324,25.291,156.226,25.291 M152.623,25.228h0.539l1.297-4.263h-0.49
		l-0.734,2.521c-0.113,0.379-0.191,0.67-0.314,1.145h-0.016c-0.129-0.482-0.217-0.773-0.322-1.145l-0.732-2.521h-0.525
		L152.623,25.228z M150.486,25.26c0.17,0,0.355-0.024,0.459-0.057V24.76c-0.088,0.032-0.232,0.057-0.371,0.057
		c-0.459,0-0.57-0.21-0.57-0.645v-2.764h0.941v-0.443h-0.941v-1.53h-0.523v1.53h-0.631v0.443h0.631v2.868
		C149.48,24.993,149.779,25.26,150.486,25.26 M147.109,25.283c0.799,0,1.42-0.45,1.42-1.151c0-1.531-2.209-1.063-2.209-2.184
		c0-0.347,0.242-0.629,0.766-0.629c0.459,0,0.766,0.233,0.975,0.597l0.387-0.258c-0.281-0.475-0.717-0.781-1.361-0.781
		c-0.766,0-1.279,0.467-1.279,1.096c0,1.481,2.223,1.063,2.223,2.176c0,0.418-0.324,0.692-0.91,0.692
		c-0.467,0-0.871-0.242-1.145-0.692l-0.389,0.248C145.91,24.953,146.4,25.283,147.109,25.283 M146.933,20.514h0.379l0.885-1.272
		h-0.33l-0.732,0.766l-0.742-0.766h-0.346L146.933,20.514z M143.162,25.291c0.549,0,1.016-0.33,1.363-0.692v0.604h0.523v-4.238
		h-0.523v3.199c-0.389,0.395-0.783,0.669-1.217,0.669c-0.492,0-0.678-0.267-0.678-0.807v-3.062h-0.523v3.15
		C142.107,24.889,142.46,25.291,143.162,25.291 M139.615,25.203h0.523v-2.877c0.258-0.571,0.734-0.958,1.305-0.958h0.139
		l0.047-0.491h-0.088c-0.676,0-1.127,0.387-1.387,0.846h-0.016v-0.758h-0.523V25.203z M137.142,24.817
		c-0.604,0-1.039-0.523-1.039-1.732c0-1.225,0.428-1.748,1.023-1.748c0.402,0,0.758,0.242,1.088,0.637v2.23
		C137.908,24.551,137.56,24.817,137.142,24.817 M137.029,25.276c0.541,0,0.912-0.306,1.186-0.629c0,0.146,0.039,0.411,0.078,0.557
		h0.549c-0.078-0.218-0.104-0.531-0.104-1.047v-4.915h-0.523v2.256c-0.283-0.362-0.67-0.62-1.16-0.62
		c-0.83,0-1.482,0.668-1.482,2.207S136.199,25.276,137.029,25.276 M131.724,24.824c-0.404,0-0.639-0.209-0.639-0.668
		c0-0.541,0.428-1.041,1.869-1.346v1.401C132.632,24.574,132.189,24.824,131.724,24.824 M131.578,25.26
		c0.547,0,1.006-0.227,1.377-0.613c0,0.242,0.041,0.387,0.088,0.557h0.533c-0.072-0.218-0.105-0.531-0.105-1.047v-2.039
		c0-0.79-0.354-1.24-1.152-1.24c-0.668,0-1.199,0.298-1.635,0.757l0.314,0.314c0.33-0.331,0.74-0.612,1.281-0.612
		c0.449,0,0.676,0.258,0.676,0.781v0.29c-1.717,0.354-2.385,0.983-2.385,1.805C130.57,24.857,130.931,25.26,131.578,25.26
		 M127.306,25.203h2.844V24.76h-2.225l2.137-3.448v-0.347h-2.578v0.443h1.955l-2.133,3.44V25.203z M125.042,25.26
		c0.168,0,0.354-0.024,0.459-0.057V24.76c-0.09,0.032-0.234,0.057-0.371,0.057c-0.459,0-0.572-0.21-0.572-0.645v-2.764h0.943v-0.443
		h-0.943v-1.53h-0.523v1.53h-0.629v0.443h0.629v2.868C124.035,24.993,124.332,25.26,125.042,25.26 M121.023,25.291
		c0.547,0,1.014-0.33,1.361-0.692v0.604h0.523v-4.238h-0.523v3.199c-0.387,0.395-0.781,0.669-1.217,0.669
		c-0.49,0-0.676-0.267-0.676-0.807v-3.062h-0.525v3.15C119.966,24.889,120.322,25.291,121.023,25.291 M118.97,25.26
		c0.17,0,0.355-0.024,0.459-0.057V24.76c-0.088,0.032-0.232,0.057-0.369,0.057c-0.459,0-0.572-0.21-0.572-0.645v-2.764h0.941v-0.443
		h-0.941v-1.53h-0.525v1.53h-0.627v0.443h0.627v2.868C117.962,24.993,118.261,25.26,118.97,25.26 M116.302,25.203h0.523v-4.238
		h-0.523V25.203z M116.294,20.038h0.539v-0.62h-0.539V20.038z M115.265,25.26c0.17,0,0.355-0.024,0.459-0.057V24.76
		c-0.088,0.032-0.232,0.057-0.369,0.057c-0.459,0-0.572-0.21-0.572-0.645v-2.764h0.941v-0.443h-0.941v-1.53h-0.523v1.53h-0.627
		v0.443h0.627v2.868C114.259,24.993,114.556,25.26,115.265,25.26 M111.916,25.283c0.797,0,1.418-0.45,1.418-1.151
		c0-1.531-2.207-1.063-2.207-2.184c0-0.347,0.242-0.629,0.764-0.629c0.459,0,0.766,0.233,0.975,0.597l0.389-0.258
		c-0.283-0.475-0.717-0.781-1.363-0.781c-0.764,0-1.279,0.467-1.279,1.096c0,1.481,2.223,1.063,2.223,2.176
		c0,0.418-0.322,0.692-0.91,0.692c-0.467,0-0.871-0.242-1.143-0.692l-0.389,0.248C110.714,24.953,111.205,25.283,111.916,25.283
		 M106.962,25.203h0.523v-3.207c0.338-0.338,0.791-0.66,1.225-0.66c0.484,0,0.66,0.266,0.66,0.805v3.063h0.523v-3.15
		c0-0.774-0.346-1.176-1.047-1.176c-0.547,0-1.063,0.362-1.361,0.686v-0.598h-0.523V25.203z M105.445,25.203h0.547V19.24h-0.547
		V25.203z"/>
	<path fill="#6F6F6E" d="M19.522,34.334h7.994v-2.756h-4.133l4.133-7.758v-2.43h-7.723v2.756h3.789l-4.061,7.759V34.334z
		 M15.118,34.334h3.371V21.392h-3.371V34.334z M4.84,34.334h4.895c3.897,0,4.097-3.082,4.097-6.471c0-3.391-0.199-6.473-4.097-6.473
		H4.84V34.334z M8.211,23.821h0.671c1.305,0,1.469,0.544,1.469,4.043c0,3.498-0.164,4.042-1.469,4.042H8.211V23.821z M0,34.334
		h3.372V21.392H0V34.334z"/>
</g>
</svg>
