<?xml version="1.0" encoding="UTF-8"?><svg id="Layer_2" xmlns="http://www.w3.org/2000/svg" viewBox="0 0 90.5 90.5"><defs><style>.cls-1{fill:#aefcd8;}</style></defs><g id="Layer_1-2"><g><polygon class="cls-1" points="30.25 58.25 45.84 85.25 14.66 85.25 30.25 58.25"/><path class="cls-1" d="M69.25,33.25c8.84,0,16,7.16,16,16-.01,8.83-7.17,15.99-16,16-8.84,0-16-7.16-16-16s7.16-16,16-16Z"/><rect class="cls-1" x="5.25" y="5.25" width="30" height="30"/><path d="M69.25,28.25c11.6,0,21,9.4,21,21s-9.4,21-21,21-21-9.4-21-21,9.4-21,21-21Zm16,21c0-8.84-7.16-16-16-16s-16,7.16-16,16,7.16,16,16,16c8.83-.01,15.99-7.17,16-16Z"/><path d="M40.25,1.25V39.25c0,.55-.45,1-1,1H1.25c-.55,0-1-.45-1-1V1.25C.25,.7,.7,.25,1.25,.25H39.25c.55,0,1,.45,1,1Zm-5,34V5.25H5.25v30h30Z"/><path d="M30.68,49l23.39,40.5c.04,.08,.06,.16,.06,.25,0,.28-.22,.5-.49,.5H6.87c-.09,0-.18-.02-.25-.07-.24-.13-.32-.44-.19-.68L29.82,49c.04-.08,.1-.14,.18-.18,.24-.14,.54-.06,.68,.18Zm15.16,36.25l-15.59-27-15.59,27h31.18Z"/></g></g></svg>