<svg xmlns="http://www.w3.org/2000/svg" viewBox="0 0 752 752">
  <path fill-rule="evenodd" d="M533.95 363.42H353.91c-10.62 0-165.5-4.47-179.48-.56-8.39 1.68-14.54 11.19-10.06 21.25 5.03 12.3 40.81 8.38 62.62 8.38 58.15 0 116.3 2.24 175.57 2.24l134.75-1.11c-11.18 21.24-61.5 55.9-38.58 72.12 13.98 10.63 21.8-4.47 26.84-10.06 20.13-22.92 36.35-43.05 54.8-67.1 22.36-29.62-2.24-26.83-43.62-63.73-7.83-7.27-38.58-39.14-42.5-40.82-11.17-5.59-22.35 3.36-21.24 15.1 1.12 14.54 58.15 58.7 60.95 64.3z"/>
</svg>
