<?xml version="1.0" encoding="UTF-8"?><svg id="Layer_2" xmlns="http://www.w3.org/2000/svg" viewBox="0 0 100.5 94.25"><defs><style>.cls-1{fill:#aefcd8;}</style></defs><g id="Layer_1-2"><g><polygon class="cls-1" points="86.5 81.5 89.83 87.75 10.67 87.75 14 81.5 86.5 81.5"/><polygon class="cls-1" points="69.83 50.25 73.17 56.5 27.33 56.5 30.67 50.25 69.83 50.25"/><polygon class="cls-1" points="50.25 13.53 56.5 25.25 44 25.25 50.25 13.53"/><path d="M90.25,75.25l10,18.75H.25l10-18.75H90.25Zm-.42,12.5l-3.33-6.25H14l-3.33,6.25H89.83Z"/><path d="M73.58,44l10,18.75H16.92l10-18.75h46.66Zm-.41,12.5l-3.34-6.25H30.67l-3.34,6.25h45.84Z"/><path d="M50.25,.25l16.67,31.25H33.58L50.25,.25Zm6.25,25l-6.25-11.72-6.25,11.72h12.5Z"/></g></g></svg>