<?xml version="1.0" encoding="UTF-8"?><svg id="Layer_2" xmlns="http://www.w3.org/2000/svg" viewBox="0 0 80.93 98.17"><defs><style>.cls-1{fill:#fff;}.cls-2{fill:#aefcd8;}</style></defs><g id="Layer_1-2"><g><path class="cls-2" d="M40.46,21.49c19.97,0,36.21,16.24,36.21,36.21s-16.24,36.21-36.21,36.21S4.25,77.67,4.25,57.7,20.49,21.49,40.46,21.49Zm28.93,36.21c0-15.95-12.98-28.93-28.93-28.93s-28.93,12.98-28.93,28.93,12.98,28.93,28.93,28.93,28.93-12.98,28.93-28.93Z"/><path class="cls-1" d="M40.46,32.77c13.74,0,24.93,11.19,24.93,24.93s-11.19,24.93-24.93,24.93-24.93-11.18-24.93-24.93,11.19-24.93,24.93-24.93Zm2,24.93v-18.48c0-1.11-.9-2-2-2s-2,.89-2,2v15.08l-8.22-4.57c-.97-.54-2.19-.18-2.72,.78-.54,.97-.19,2.18,.77,2.72l11.2,6.22s.05,.02,.07,.03c.1,.05,.21,.09,.32,.13,.05,.01,.08,.03,.12,.04,.15,.03,.3,.05,.45,.05h.01c.16,0,.32-.02,.47-.06,.04-.01,.08-.02,.12-.04,.12-.03,.23-.08,.34-.14,.04-.02,.07-.04,.11-.06,.14-.08,.26-.17,.37-.28,.01-.01,.02-.02,.02-.03,.11-.11,.2-.23,.28-.37,0-.01,.03-.03,.04-.05s.02-.06,.04-.09c.03-.06,.06-.13,.08-.19,.02-.07,.04-.13,.06-.19s.03-.12,.04-.19,.02-.14,.02-.21c0-.03,.01-.06,.01-.1Z"/><path class="cls-2" d="M75.75,26.79l-4.77,4.77c-1.18-1.37-2.45-2.67-3.8-3.87l4.73-4.73,3.84,3.83Z"/><path class="cls-2" d="M9.01,22.96l4.73,4.73c-1.35,1.2-2.62,2.5-3.8,3.87l-4.76-4.77,3.83-3.83Z"/><path class="cls-2" d="M48.91,4.25v3.17h-4.66c-1.11,0-2,.9-2,2v8.11c-.6-.02-1.19-.04-1.79-.04-.87,0-1.73,.04-2.58,.09V9.42c-.01-1.1-.9-2-2.01-2h-3.85v-3.17h16.89Z"/><path d="M79.99,25.38c.37,.37,.58,.88,.58,1.41s-.21,1.04-.58,1.42l-6.54,6.53c4.55,6.52,7.22,14.43,7.22,22.96,0,22.18-18.03,40.21-40.21,40.21S.25,79.88,.25,57.7c0-8.53,2.68-16.44,7.22-22.95L.93,28.21c-.37-.38-.58-.89-.58-1.42s.21-1.04,.58-1.41l6.66-6.66c.75-.75,2.08-.75,2.83,0l6.45,6.44c4.94-3.59,10.73-6.08,17-7.12v-6.62h-3.85c-1.11,0-2-.89-2-2V2.25c0-1.11,.89-2,2-2h20.88c1.11,0,2,.89,2,2v7.17c0,1.11-.89,2-2,2h-4.65v6.49c6.58,.95,12.65,3.51,17.8,7.25l6.45-6.44c.78-.79,2.05-.79,2.83,0l6.66,6.66Zm-9.01,6.18l4.77-4.77-3.84-3.83-4.73,4.73c1.35,1.2,2.62,2.5,3.8,3.87Zm5.69,26.14c0-19.97-16.24-36.21-36.21-36.21S4.25,37.73,4.25,57.7s16.24,36.21,36.21,36.21,36.21-16.24,36.21-36.21ZM48.91,7.42v-3.17h-16.89v3.17h3.85c1.11,0,2,.9,2.01,2v8.16c.85-.05,1.71-.09,2.58-.09,.6,0,1.19,.02,1.79,.04V9.42c0-1.1,.89-2,2-2h4.66ZM13.74,27.69l-4.73-4.73-3.83,3.83,4.76,4.77c1.18-1.37,2.45-2.67,3.8-3.87Z"/><path d="M40.46,28.77c15.95,0,28.93,12.98,28.93,28.93s-12.98,28.93-28.93,28.93-28.93-12.98-28.93-28.93,12.98-28.93,28.93-28.93Zm24.93,28.93c0-13.74-11.19-24.93-24.93-24.93s-24.93,11.19-24.93,24.93,11.19,24.93,24.93,24.93,24.93-11.18,24.93-24.93Z"/><path d="M41.5,59.4s-.07,.04-.11,.06c-.11,.06-.22,.11-.34,.14-.04,.02-.08,.03-.12,.04-.15,.04-.31,.06-.47,.06h-.01c-.15,0-.3-.02-.45-.05-.04-.01-.07-.03-.12-.04-.11-.04-.22-.08-.32-.13-.02-.01-.05-.02-.07-.03l-11.2-6.22c-.96-.54-1.31-1.75-.77-2.72,.53-.96,1.75-1.32,2.72-.78l8.22,4.57v-15.08c0-1.11,.9-2,2-2s2,.89,2,2v18.48s-.01,.07-.01,.1c0,.07-.01,.14-.02,.21s-.02,.13-.04,.19-.04,.12-.06,.19c-.02,.06-.05,.13-.08,.19-.02,.03-.03,.07-.04,.09s-.03,.04-.04,.05c-.08,.14-.17,.26-.28,.37,0,.01-.01,.02-.02,.03-.11,.11-.23,.2-.37,.28Z"/></g></g></svg>