<?xml version="1.0" encoding="UTF-8"?><svg id="Layer_2" xmlns="http://www.w3.org/2000/svg" viewBox="0 0 80.5 80.5"><defs><style>.cls-1{fill:#aefcd8;}</style></defs><g id="Layer_1-2"><g><path class="cls-1" d="M73.58,6.92V73.58H6.92V6.92H73.58Zm-10,23.33v-10c0-1.84-1.49-3.34-3.33-3.34H20.25c-1.84,0-3.33,1.5-3.33,3.34v10h6.66v-6.67h13.34V56.92h-6.67v6.66h20v-6.66h-6.67V23.58h13.34v6.67h6.66Z"/><path d="M80.25,6.92V73.58c0,3.67-3,6.67-6.67,6.67H6.92c-3.67,0-6.67-3-6.67-6.67V6.92C.25,3.25,3.25,.25,6.92,.25H73.58c3.67,0,6.67,3,6.67,6.67Zm-6.67,66.66V6.92H6.92V73.58H73.58Z"/><path d="M63.58,20.25v10h-6.66v-6.67h-13.34V56.92h6.67v6.66H30.25v-6.66h6.67V23.58h-13.34v6.67h-6.66v-10c0-1.84,1.49-3.33,3.33-3.33H60.25c1.84,0,3.33,1.49,3.33,3.33Z"/></g></g></svg>