<?xml version="1.0" encoding="UTF-8"?><svg id="Layer_2" xmlns="http://www.w3.org/2000/svg" viewBox="0 0 92.5 87.63"><defs><style>.cls-1{fill:#6678ee;}.cls-2{fill:#aefcd8;}</style></defs><g id="Layer_1-2"><g><path class="cls-1" d="M28.93,56.38H2.25V10.54h3.38V50.65c0,.3,.14,.59,.37,.78s.53,.27,.82,.21c6.54-1.28,13.21-1.75,19.86-1.42,.44,2.15,1.2,4.23,2.25,6.16Z"/><path class="cls-1" d="M90.25,10.54V56.38h-20.7l-.09-.09c1.03-1.93,1.78-4,2.22-6.15,4.7,.09,9.39,.59,14,1.5,.29,.06,.59-.02,.82-.21,.24-.19,.37-.48,.37-.78V10.54h3.38Z"/><path class="cls-1" d="M70.16,45.46c0,5.57-2.21,10.92-6.15,14.86-3.93,3.95-9.27,6.16-14.84,6.15-11.6,0-21-9.39-21.01-20.99,0-11.6,9.4-21.01,20.99-21.01s21.01,9.39,21.01,20.99Zm-4.95,.03c0-4.11-1.56-8.22-4.69-11.36-6.27-6.27-16.44-6.27-22.71,0-6.27,6.27-6.28,16.44,0,22.71,6.27,6.27,16.44,6.27,22.71,0,3.13-3.14,4.69-7.25,4.69-11.35Z"/><path class="cls-1" d="M88.45,78.11c1.35,1.35,.39,3.73-1.27,5.39s-4,2.62-5.39,1.26l-20-20c2.65-1.74,4.91-4.01,6.65-6.66l20.01,20.01Z"/><path class="cls-2" d="M59.11,35.54c5.49,5.45,5.53,14.31,.08,19.8l-.08,.08c-5.49,5.48-14.39,5.48-19.87-.01s-5.48-14.39,.01-19.87,14.37-5.48,19.86,0Z"/><path class="cls-2" d="M84.87,3.64V49.45c-4.25-.77-8.56-1.21-12.88-1.33,.1-.88,.16-1.76,.16-2.64,.01-12.67-10.26-22.96-22.94-22.96-.65,0-1.31,.02-1.96,.08V5.54c12.21-3.6,25.11-4.25,37.62-1.9Z"/><path class="cls-2" d="M26.18,45.48c0,.9,.06,1.8,.18,2.69-1.17,0-2.37-.08-3.61-.08-5.07,0-10.13,.45-15.12,1.36V3.64c12.51-2.35,25.4-1.71,37.62,1.88V22.84c-11.03,1.89-19.08,11.45-19.07,22.64Z"/><path d="M59.19,55.34c5.45-5.49,5.41-14.35-.08-19.8-5.49-5.48-14.37-5.48-19.86,0s-5.49,14.38-.01,19.87,14.38,5.49,19.87,.01l.08-.08Zm-21.38,1.5c-6.28-6.27-6.27-16.44,0-22.71,6.27-6.27,16.44-6.27,22.71,0,3.13,3.14,4.69,7.25,4.69,11.36s-1.56,8.21-4.69,11.35c-6.27,6.27-16.44,6.27-22.71,0Z"/><path d="M90.25,56.38V10.54h-3.38V50.65c0,.3-.13,.59-.37,.78-.23,.19-.53,.27-.82,.21-4.61-.91-9.3-1.41-14-1.5-.44,2.15-1.19,4.22-2.22,6.15l.09,.09h20.7ZM84.87,3.64c-12.51-2.35-25.41-1.7-37.62,1.9V22.6c.65-.06,1.31-.08,1.96-.08,12.68,0,22.95,10.29,22.94,22.96,0,.88-.06,1.76-.16,2.64,4.32,.12,8.63,.56,12.88,1.33V3.64Zm-23.08,61.12l20,20c1.39,1.36,3.73,.4,5.39-1.26s2.62-4.04,1.27-5.39l-20.01-20.01c-1.74,2.65-4,4.92-6.65,6.66Zm-32.86-8.38c-1.05-1.93-1.81-4.01-2.25-6.16-6.65-.33-13.32,.14-19.86,1.42-.29,.06-.59-.02-.82-.21s-.37-.48-.37-.78V10.54H2.25V56.38H28.93Zm-2.75-10.9c-.01-11.19,8.04-20.75,19.07-22.64V5.52C33.03,1.93,20.14,1.29,7.63,3.64V49.45c4.99-.91,10.05-1.36,15.12-1.36,1.24,0,2.44,.08,3.61,.08-.12-.89-.18-1.79-.18-2.69Zm33.8,20.25c-8.92,4.76-19.9,3.14-27.06-4-1.03-1.03-1.95-2.15-2.77-3.35H1.25c-.55,0-1-.45-1-1V9.54c0-.55,.45-1,1-1H5.63V2.84c-.01-.49,.33-.91,.81-1,21.02-4.13,37.2,1,39.81,1.91,2.61-.91,18.79-6.04,39.81-1.91,.48,.09,.82,.51,.81,1v5.7h4.38c.55,0,1,.45,1,1V57.38c0,.55-.45,1-1,1h-19.7l18.32,18.26c2.38,2.39,1.01,5.94-1.27,8.22-1.36,1.47-3.22,2.37-5.22,2.52-1.13,.01-2.21-.44-3-1.25l-20.4-20.4Zm-10.83-41.26c-11.59,0-20.99,9.41-20.99,21.01,.01,11.6,9.41,20.99,21.01,20.99,5.57,.01,10.91-2.2,14.84-6.15,3.94-3.94,6.15-9.29,6.15-14.86,0-11.6-9.41-20.99-21.01-20.99Z"/></g></g></svg>