<?xml version="1.0" encoding="UTF-8"?>
<svg width="1200pt" height="1200pt" version="1.1" viewBox="0 0 1200 1200" xmlns="http://www.w3.org/2000/svg">
 <path fill="#252525" d="m1100.7 319.11c-22.727-40.441-73.922-54.816-114.41-32.039-40.441 22.727-54.77 73.945-32.039 114.38 33.863 60.238 51.77 128.9 51.77 198.55 0 223.87-182.14 406.01-406.01 406.01-223.88 0-405.99-182.14-405.99-406.01s182.14-406.01 406.01-406.01c49.273 0 97.391 8.7109 143.04 25.895 43.488 16.344 91.871-5.6406 108.19-49.031 16.344-43.414-5.5938-91.871-49.031-108.19-64.633-24.336-132.67-36.672-202.2-36.672-316.51 0-574.01 257.5-574.01 574.01s257.5 574.01 574.01 574.01 574.01-257.5 574.01-574.01c0-98.449-25.367-195.57-73.344-280.89z"/>
</svg>
