<?xml version="1.0" encoding="UTF-8"?><svg id="Layer_2" xmlns="http://www.w3.org/2000/svg" viewBox="0 0 95.5 95.3"><defs><style>.cls-1{fill:#fff;}.cls-2{fill:#aefcd8;}.cls-3{fill:none;stroke:#000;stroke-miterlimit:10;stroke-width:7px;}</style></defs><g id="Layer_1-2"><g><g><path d="M95.25,14.75V59.05c0,8-6.5,14.5-14.5,14.5h-31.3c-5.5,7-13.8,15.8-23.5,20.6-1.3,.6-2.7,.9-4,.9-2.3,0-4.5-.9-6.2-2.5-2.7-2.6-3.5-6.5-2-10,1.2-2.8,2.1-5.9,2.5-9h-1.5c-8,0-14.5-6.5-14.5-14.5V14.75C.25,6.75,6.75,.25,14.75,.25H80.75c8,0,14.5,6.5,14.5,14.5Zm-7.3,44.3V14.75c0-4-3.2-7.2-7.2-7.2H14.75c-4,0-7.2,3.2-7.2,7.2V58.95c0,4,3.2,7.2,7.2,7.2h5.5c1,0,2,.4,2.6,1.1s1,1.6,1,2.6c-.2,5.5-1.3,10.7-3.5,15.6-.2,.7-.1,1.3,.4,1.8s1.2,.6,1.8,.3c9.7-4.7,18-14.5,22.1-19.9,.7-.9,1.8-1.4,2.9-1.4h33.2c4,0,7.2-3.2,7.2-7.2Z"/><path class="cls-2" d="M87.95,14.75V59.05c0,4-3.2,7.2-7.2,7.2H47.55c-1.1,0-2.2,.5-2.9,1.4-4.1,5.4-12.4,15.2-22.1,19.9-.6,.3-1.3,.2-1.8-.3s-.6-1.1-.4-1.8c2.2-4.9,3.3-10.1,3.5-15.6,0-1-.4-1.9-1-2.6s-1.6-1.1-2.6-1.1h-5.5c-4,0-7.2-3.2-7.2-7.2V14.75c0-4,3.2-7.2,7.2-7.2H80.75c4,0,7.2,3.2,7.2,7.2Zm-20.8,19.8c2-1.6,1-4.7-1.6-4.9l-9.3-.8c-1.1-.1-2-.8-2.4-1.7l-3.6-8.6c-1-2.3-4.3-2.3-5.2,0l-3.6,8.6c-.4,1-1.3,1.7-2.4,1.7l-9.1,.8c-2.5,.2-3.5,3.3-1.6,5l7,6c.8,.7,1.2,1.8,.9,2.8l-2.1,9c-.6,2.5,2.1,4.4,4.2,3.1l7.9-4.8c.9-.6,2-.6,3,0l7.9,4.8c2.2,1.3,4.8-.6,4.2-3.1l-2.1-9c-.2-1,.1-2.1,.9-2.8l7-6.1Z"/><path class="cls-1" d="M65.55,29.65c2.6,.2,3.6,3.3,1.6,4.9l-7,6.1c-.8,.7-1.1,1.8-.9,2.8l2.1,9c.6,2.5-2,4.4-4.2,3.1l-7.9-4.8c-1-.6-2.1-.6-3,0l-7.9,4.8c-2.1,1.3-4.8-.6-4.2-3.1l2.1-9c.3-1-.1-2.1-.9-2.8l-7-6c-1.9-1.7-.9-4.8,1.6-5l9.1-.8c1.1,0,2-.7,2.4-1.7l3.6-8.6c.9-2.3,4.2-2.3,5.2,0l3.6,8.6c.4,.9,1.3,1.6,2.4,1.7l9.3,.8Z"/></g><path class="cls-3" d="M65.55,29.65l-9.3-.8c-1.1-.1-2-.8-2.4-1.7l-3.6-8.6c-1-2.3-4.3-2.3-5.2,0l-3.6,8.6c-.4,1-1.3,1.7-2.4,1.7l-9.1,.8c-2.5,.2-3.5,3.3-1.6,5l7,6c.8,.7,1.2,1.8,.9,2.8l-2.1,9c-.6,2.5,2.1,4.4,4.2,3.1l7.9-4.8c.9-.6,2-.6,3,0l7.9,4.8c2.2,1.3,4.8-.6,4.2-3.1l-2.1-9c-.2-1,.1-2.1,.9-2.8l7-6.1c2-1.6,1-4.7-1.6-4.9Z"/></g></g></svg>