<?xml version="1.0" encoding="UTF-8"?><svg id="Layer_2" xmlns="http://www.w3.org/2000/svg" viewBox="0 0 95.01 73.39"><defs><style>.cls-1{fill:#fff;}.cls-2{fill:#aefcd8;}</style></defs><g id="Layer_1-2"><g><path class="cls-1" d="M64.21,4.41v31.94H22.2V4.41h42.01Zm-12.85,8.01c0-1.15-.93-2.08-2.08-2.08h-12.15c-1.15,0-2.08,.93-2.08,2.08s.93,2.09,2.08,2.09h12.15c1.15,0,2.08-.94,2.08-2.09Zm0,7.96c0-1.15-.93-2.08-2.08-2.08h-12.15c-1.15,0-2.08,.93-2.08,2.08s.93,2.08,2.08,2.08h12.15c1.15,0,2.08-.93,2.08-2.08Zm0,7.96c0-1.15-.93-2.09-2.08-2.09h-12.15c-1.15,0-2.08,.94-2.08,2.09s.93,2.08,2.08,2.08h12.15c1.15,0,2.08-.93,2.08-2.08Z"/><path class="cls-2" d="M18.03,9.36v26.99h-3.78c-.88,0-1.66,.54-1.96,1.37l-7.87,21.55V9.36h13.61Z"/><rect class="cls-2" x="68.38" y="20.91" width="9.02" height="15.44"/><polygon class="cls-2" points="89.67 40.52 78.96 68.97 5.32 68.97 15.71 40.52 89.67 40.52"/><path d="M93.41,36.48c1.08,.41,1.63,1.61,1.22,2.68l-12.28,32.63c-.3,.81-1.08,1.34-1.95,1.34H2.34c-.25,0-.5-.05-.73-.14-.05-.02-.09-.03-.13-.05-.21-.1-.41-.23-.57-.39-.04-.03-.07-.07-.1-.1-.06-.06-.12-.13-.18-.2-.07-.11-.13-.22-.17-.33-.02-.03-.04-.05-.05-.08-.09-.23-.14-.47-.14-.72,0-.02-.02-.04-.02-.07V7.28c0-1.15,.94-2.09,2.09-2.09h15.69V2.33c0-1.15,.93-2.08,2.08-2.08h46.18c1.15,0,2.09,.93,2.09,2.08v14.41h11.11c1.15,0,2.08,.93,2.08,2.08v17.53h11.11c.25,0,.5,.04,.73,.13Zm-14.45,32.49l10.71-28.45H15.71l-10.39,28.45H78.96Zm-1.56-32.62v-15.44h-9.02v15.44h9.02Zm-13.19,0V4.41H22.2v31.94h42.01Zm-46.18,0V9.36H4.42V59.27l7.87-21.55c.3-.83,1.08-1.37,1.96-1.37h3.78Z"/><path d="M49.28,10.34c1.15,0,2.08,.93,2.08,2.08s-.93,2.09-2.08,2.09h-12.15c-1.15,0-2.08-.94-2.08-2.09s.93-2.08,2.08-2.08h12.15Z"/><path d="M49.28,18.3c1.15,0,2.08,.93,2.08,2.08s-.93,2.08-2.08,2.08h-12.15c-1.15,0-2.08-.93-2.08-2.08s.93-2.08,2.08-2.08h12.15Z"/><path d="M49.28,26.25c1.15,0,2.08,.94,2.08,2.09s-.93,2.08-2.08,2.08h-12.15c-1.15,0-2.08-.93-2.08-2.08s.93-2.09,2.08-2.09h12.15Z"/></g></g></svg>